<svg width="24" height="24" viewBox="0 0 24 24" fill="none" xmlns="http://www.w3.org/2000/svg">
<path d="M2 12.83V15C2 20 4 22 9 22H15C20 22 22 20 22 15V9C22 4 20 2 15 2H9C4 2 2 4 2 9" stroke="white" stroke-width="1.5" stroke-linecap="round" stroke-linejoin="round"/>
<path d="M10.11 11.1504H7.45999C6.82999 11.1504 6.32001 11.6603 6.32001 12.2903V17.4103H10.11V11.1504V11.1504Z" stroke="white" stroke-width="1.5" stroke-miterlimit="10" stroke-linecap="round" stroke-linejoin="round"/>
<path d="M12.76 6.6001H11.24C10.61 6.6001 10.1 7.11011 10.1 7.74011V17.4001H13.89V7.74011C13.89 7.11011 13.39 6.6001 12.76 6.6001Z" stroke="white" stroke-width="1.5" stroke-miterlimit="10" stroke-linecap="round" stroke-linejoin="round"/>
<path d="M16.55 12.8501H13.9V17.4001H17.69V13.9901C17.68 13.3601 17.17 12.8501 16.55 12.8501Z" stroke="white" stroke-width="1.5" stroke-miterlimit="10" stroke-linecap="round" stroke-linejoin="round"/>
</svg>
