<svg width="48" height="48" viewBox="0 0 48 48" fill="none" xmlns="http://www.w3.org/2000/svg">
<path d="M24 24C29.5228 24 34 19.5228 34 14C34 8.47715 29.5228 4 24 4C18.4772 4 14 8.47715 14 14C14 19.5228 18.4772 24 24 24Z" fill="#E0B220"/>
<path opacity="0.4" d="M24 29C13.98 29 5.81995 35.72 5.81995 44C5.81995 44.56 6.25995 45 6.81995 45H41.1801C41.7401 45 42.1801 44.56 42.1801 44C42.1801 35.72 34.02 29 24 29Z" fill="#E0B220"/>
<path d="M42.8599 29.4802C41.0599 27.6802 39.64 28.2602 38.42 29.4802L31.3399 36.5602C31.0599 36.8402 30.7999 37.3602 30.7399 37.7402L30.3599 40.4401C30.2199 41.4201 30.9 42.1001 31.88 41.9601L34.5799 41.5801C34.9599 41.5201 35.5 41.2602 35.76 40.9802L42.8399 33.9002C44.0799 32.7002 44.6599 31.2802 42.8599 29.4802Z" fill="#E0B220"/>
</svg>
