<svg width="631" height="551" viewBox="0 0 631 551" fill="none" xmlns="http://www.w3.org/2000/svg">
<path d="M575.206 236.352C572.719 235.86 569.251 236.536 565.537 238.316C563.664 239.206 561.731 240.373 559.766 241.785C557.771 243.197 555.745 244.885 553.811 246.819C551.878 248.752 550.22 250.686 548.839 252.62C547.427 254.554 546.168 256.457 545.278 258.268C545.125 258.605 545.002 258.912 544.848 259.219C544.971 256.979 545.094 254.769 545.217 252.528C545.278 246.88 545.432 241.232 545.094 235.584C545.094 235.277 545.063 234.97 545.033 234.663C550.036 234.97 558.416 231.563 564.739 223.337C566.458 221.127 567.9 218.825 568.975 216.492C570.018 214.19 570.755 211.888 571.246 209.678C572.29 205.257 572.044 201.359 571.031 198.812C568.484 198.689 565.199 199.886 561.761 202.219C558.354 204.551 554.763 207.989 551.479 212.379C549.852 214.558 548.501 216.768 547.427 218.886C546.322 221.004 545.37 223.061 544.756 224.994C544.634 225.363 544.572 225.67 544.48 226.038C543.835 218.456 542.823 210.875 541.318 203.416C541.318 203.416 541.257 203.17 541.257 203.047C541.196 202.679 541.134 202.311 541.042 201.942C541.042 201.942 541.042 201.881 541.042 201.85C546.046 201.421 553.781 196.786 558.845 187.731C561.669 182.85 562.958 177.755 563.235 173.273C563.634 168.761 562.774 164.955 561.393 162.591C558.876 162.837 555.776 164.525 552.706 167.349C549.637 170.173 546.659 174.102 544.05 178.921C541.503 183.74 540.029 188.375 539.293 192.396C539.231 192.765 539.231 193.102 539.17 193.44C537.267 185.459 534.903 177.601 532.11 169.897C536.99 168.7 543.928 163.021 547.611 153.291C551.663 142.854 549.852 132.295 546.414 128.059C541.441 129.318 535.302 136.501 531.711 146.783C529.746 152.401 528.948 157.649 529.04 161.916C526.155 154.856 522.932 147.95 519.371 141.197C519.371 141.197 519.31 141.074 519.279 141.013C519.065 140.644 518.911 140.245 518.696 139.877H518.665C518.665 139.877 518.635 139.846 518.604 139.816C520.783 138.956 523.208 137.084 525.48 134.26C528.027 131.006 530.268 126.555 531.527 121.092C532.847 115.567 532.448 110.41 531.527 105.99C530.544 101.57 528.58 98.2238 526.646 96.3207C521.919 98.2852 516.854 106.358 514.859 116.978C513.754 122.841 513.693 128.151 514.43 132.387C510.409 125.573 506.111 118.943 501.353 112.589C501.169 112.344 500.985 112.098 500.77 111.852C505.129 109.305 509.948 101.907 510.746 91.4402C511.145 85.8537 510.071 80.7276 508.505 76.4917C506.817 72.3479 504.454 69.2477 502.244 67.6515C497.885 70.2913 493.987 79.0701 493.649 89.8441C493.342 95.3385 494.048 100.127 495.153 104.056C495.245 104.455 495.399 104.762 495.521 105.13C490.702 99.2061 485.607 93.5275 480.235 88.0944C480.235 88.0944 480.02 87.8796 479.898 87.7568C479.652 87.5112 479.407 87.2657 479.161 87.0201C479.161 87.0201 479.1 87.0201 479.1 86.9894C483.029 83.8278 486.712 75.8164 485.975 65.288C485.515 59.7629 483.735 54.7903 481.555 50.8306C479.222 47.0245 476.46 44.2312 474.035 43.0034C470.137 46.2264 467.558 55.527 468.817 66.2089C469.339 71.6726 470.689 76.3996 472.408 80.0523C472.562 80.4514 472.776 80.7583 472.93 81.1267C467.067 75.7857 460.959 70.721 454.605 65.994C454.359 65.8098 454.114 65.6564 453.838 65.4722C457.245 61.7274 459.67 53.2862 457.398 43.0034C456.078 37.6625 453.653 32.9047 450.829 29.4055C447.975 25.9676 444.813 23.6348 442.235 22.7754C438.858 26.5509 437.692 36.1584 440.547 46.5333C441.928 51.8129 443.892 56.3558 446.164 59.6708C446.379 60.0085 446.593 60.2847 446.839 60.6224C440.086 56.1102 433.057 51.9664 425.874 48.1602L425.659 48.5592C425.23 46.2878 423.879 43.648 421.516 40.9775C418.784 37.8466 414.671 35.0534 409.667 32.874C399.507 28.7916 390.023 30.357 386.339 33.58C387.69 38.4298 394.013 44.753 403.283 48.4978C407.887 50.5237 412.491 51.2911 416.42 51.4752C419.766 51.6594 422.682 51.1376 424.769 50.1554L424.524 50.6158C431.553 54.3299 438.367 58.3816 444.997 62.8017C444.721 62.7403 444.476 62.6482 444.199 62.5868C440.209 61.9729 435.421 62.0957 430.448 63.5691C420.38 66.6693 414.118 73.3915 412.522 78.1799C414.026 79.6226 416.758 80.6048 420.349 80.8197C423.879 81.1267 428.238 80.8197 433.18 79.377C442.173 77.0135 449.663 72.133 452.211 67.805C452.456 67.9585 452.671 68.1427 452.917 68.2961C459.086 72.9004 465.011 77.7809 470.689 82.9684C470.474 82.8763 470.259 82.7842 470.014 82.6921C466.177 81.4643 461.358 80.9425 456.262 81.5871C445.826 83.1832 438.613 88.8925 436.341 93.374C437.631 95.0315 440.178 96.3821 443.708 97.1188C447.115 98.0089 451.535 98.2545 456.6 97.6406C465.809 96.6584 473.943 92.9443 477.135 89.046C477.381 89.2915 477.657 89.5371 477.902 89.7827C483.243 95.1543 488.308 100.802 493.097 106.696C492.882 106.573 492.636 106.419 492.421 106.297C488.861 104.455 484.134 103.288 479.007 103.166C468.479 103.166 460.468 107.77 457.552 111.883C458.565 113.725 460.959 115.413 464.274 116.702C467.497 118.084 471.917 118.943 476.951 119.127C486.252 119.495 494.815 117.009 498.56 113.633C498.744 113.848 498.929 114.093 499.082 114.308C503.717 120.478 507.922 126.954 511.821 133.585C508.505 131.037 503.87 128.888 498.376 128.029C488.032 126.433 479.345 129.87 475.877 133.462C477.473 137.329 484.072 141.657 494.017 143.499C498.959 144.42 503.84 144.512 507.953 143.929C511.391 143.468 514.215 142.517 516.149 141.228C516.363 141.627 516.609 142.026 516.824 142.425C520.354 149.086 523.546 155.931 526.401 162.898C523.485 159.859 519.218 157.005 513.846 155.347C503.901 152.216 494.723 154.365 490.794 157.404C491.807 161.456 497.701 166.704 507.247 169.989C516.179 173.028 524.958 173.181 529.501 171.002C532.233 178.553 534.566 186.257 536.438 194.054C536.284 193.808 536.1 193.593 535.916 193.348C533.583 190.156 529.808 187.055 525.142 184.753C520.538 182.451 515.78 181.5 511.698 181.438C507.646 181.377 504.239 182.144 502.059 183.372C502.244 185.459 503.717 187.976 506.05 190.616C508.475 193.225 512.035 195.895 516.455 198.259C524.866 202.556 533.461 204.06 538.28 202.556C538.341 202.955 538.464 203.324 538.525 203.723C540.029 211.182 541.042 218.702 541.687 226.284C541.533 226.007 541.441 225.731 541.288 225.455C540.305 223.705 539.108 221.894 537.543 220.175C535.947 218.456 534.044 216.83 531.926 215.325C527.69 212.348 523.178 210.721 519.157 210.046C515.136 209.371 511.667 209.647 509.334 210.537C509.242 212.624 510.255 215.325 512.189 218.272C513.202 219.746 514.46 221.28 516.026 222.815C517.56 224.35 519.279 225.885 521.336 227.389C529.04 232.914 537.267 235.646 542.301 234.909C542.301 235.216 542.331 235.523 542.362 235.799C542.7 241.355 542.546 246.941 542.485 252.528C542.362 254.707 542.239 256.887 542.117 259.066C542.024 258.759 541.963 258.452 541.84 258.145C541.134 256.273 540.213 254.308 538.924 252.374C537.574 250.441 535.978 248.538 534.074 246.757C532.171 244.977 530.207 243.504 528.242 242.337C526.216 241.171 524.16 240.281 522.257 239.636C518.389 238.377 514.921 238.101 512.465 238.623C512.25 239.636 512.281 240.864 512.619 242.214C512.895 243.596 513.355 245.1 514.123 246.696C514.89 248.292 515.934 250.011 517.254 251.76C518.543 253.51 520.016 255.29 521.827 257.071C528.611 263.701 536.377 267.63 541.441 267.63C541.441 267.722 541.441 267.845 541.411 267.937C540.582 275.856 539.323 283.714 537.666 291.48C537.052 287.305 535.179 282.456 531.557 277.974C528.396 273.892 524.528 270.976 520.876 269.165C517.254 267.323 513.846 266.556 511.329 266.709C510.593 268.673 510.808 271.59 511.79 274.966C512.833 278.373 514.951 282.363 517.837 286.385C523.423 293.905 530.759 299 535.763 299.706C533.767 307.595 531.312 315.391 528.457 323.004C528.457 322.605 528.488 322.206 528.457 321.807C528.334 319.811 528.089 317.693 527.383 315.453C526.646 313.212 525.633 310.91 524.344 308.638C519.095 299.583 511.176 295.01 506.142 294.58C505.037 296.391 504.669 299.246 505.252 302.776C505.528 304.556 506.05 306.49 506.848 308.546C507.554 310.603 508.413 312.721 509.61 314.931C514.031 323.188 520.569 329.327 525.388 330.77C525.326 330.892 525.296 331.015 525.234 331.169C522.165 338.474 518.666 345.595 514.798 352.532C514.859 352.164 514.89 351.796 514.951 351.397C515.136 349.401 515.105 347.222 514.829 344.951C514.552 342.679 513.785 340.193 512.833 337.768C508.966 328.007 501.753 322.328 496.841 321.131C495.491 322.758 494.723 325.521 494.815 329.112C494.815 330.892 495.153 332.949 495.491 335.036C495.828 337.123 496.442 339.395 497.302 341.789C499.021 346.547 501.446 350.813 503.993 354.067C506.173 356.86 508.413 358.794 510.501 359.807C506.295 366.652 501.722 373.252 496.811 379.575C496.872 379.298 496.964 379.022 497.025 378.746C497.486 376.781 497.793 374.633 497.824 372.331C497.885 370.029 497.67 367.604 497.025 364.995C494.601 354.712 488.308 348.02 483.642 346.117C482.108 347.529 480.941 350.2 480.512 353.76C480.327 355.571 480.174 357.536 480.205 359.654C480.266 361.802 480.512 364.135 481.033 366.621C483.029 375.922 487.172 383.504 491.347 386.358C491.04 386.727 490.733 387.126 490.395 387.525C485.576 393.203 480.45 398.606 475.079 403.762C476.767 399.926 477.749 394.922 477.442 389.489C476.491 378.93 471.272 371.318 466.944 368.77C465.225 369.967 463.721 372.453 462.77 375.922C461.634 379.237 461.051 383.596 461.327 388.722C461.695 393.909 462.586 398.514 464.028 402.35C465.256 405.604 466.852 408.213 468.54 409.779C462.586 415.027 456.355 419.969 449.878 424.574C450.001 424.39 450.123 424.236 450.246 424.052C452.241 420.522 453.776 415.948 454.206 410.822C454.697 405.758 453.684 400.846 452.303 397.071C450.86 393.265 448.896 390.379 446.931 388.814C445.028 389.704 443.34 392.16 441.682 395.229C440.086 398.391 438.889 402.657 438.459 407.783C437.446 417.023 439.319 425.648 442.48 429.608C442.358 429.7 442.235 429.761 442.112 429.853C423.48 441.916 403.099 451.217 381.704 457.233L382.472 459.904C403.743 453.918 424.063 444.71 442.665 432.8C442.971 432.616 443.278 432.401 443.616 432.217C443.708 432.155 443.831 432.094 443.923 432.033C443.923 432.033 443.984 431.971 444.015 431.971C446.287 436.453 453.377 441.824 463.783 443.359C469.246 444.034 474.495 443.359 478.793 442.07C483.182 440.842 486.282 438.479 488.001 436.391C486.835 434.12 484.134 431.879 480.389 430.099C476.613 428.257 471.978 427.091 466.453 426.354C460.989 425.709 456.109 425.986 452.211 426.937C451.75 427.029 451.351 427.152 450.922 427.275C457.674 422.486 464.182 417.36 470.382 411.866C471.733 413.769 474.066 415.703 477.35 417.238C481.095 419.018 486.098 420.338 491.592 420.154C497.118 420.031 502.244 418.65 506.357 416.746C510.286 414.659 513.202 412.05 514.583 409.717C511.606 405.604 502.52 402.412 491.838 403.026C485.73 403.149 480.573 404.376 476.644 406.095C482.169 400.816 487.449 395.229 492.421 389.428C492.421 389.428 492.452 389.397 492.483 389.366C492.79 388.998 493.097 388.66 493.403 388.292H493.373C493.373 388.292 493.373 388.231 493.403 388.231C496.872 391.853 505.436 395.045 515.596 393.234C518.328 392.774 520.937 392.037 523.331 391.085C525.725 390.134 527.905 388.998 529.685 387.678C533.307 385.038 535.824 382.061 536.868 379.544C533.338 375.922 523.853 374.111 513.294 376.26C510.685 376.812 508.168 377.487 505.866 378.255C503.564 379.022 501.538 379.943 499.757 380.956C499.42 381.14 499.143 381.355 498.837 381.539C503.87 375.063 508.536 368.34 512.833 361.373C514.675 362.785 517.591 363.951 521.09 364.442C525.173 364.995 530.115 364.688 535.456 362.969C538.126 362.109 540.582 361.004 542.822 359.715C545.063 358.426 546.874 356.891 548.501 355.326C551.724 352.195 553.811 348.88 554.456 346.24C550.435 343.201 540.735 342.802 530.575 346.485C527.997 347.406 525.787 348.511 523.607 349.616C521.428 350.721 519.525 351.918 517.929 353.146C517.714 353.33 517.53 353.484 517.315 353.668C520.998 347.099 524.313 340.316 527.26 333.409H527.291C527.444 333.072 527.567 332.703 527.721 332.335C527.751 332.243 527.813 332.151 527.843 332.028C527.843 332.028 527.843 331.967 527.874 331.936C532.294 334.392 541.042 334.791 550.466 330.186C552.983 328.959 555.315 327.485 557.28 325.858C559.183 324.232 560.841 322.451 562.191 320.671C564.923 317.11 566.519 313.55 566.795 310.818C562.375 308.393 552.706 309.467 543.16 314.563C540.766 315.852 538.648 317.233 536.776 318.706C534.872 320.149 533.092 321.592 531.68 323.065C531.465 323.28 531.343 323.464 531.128 323.679C533.952 316.067 536.407 308.331 538.402 300.443C543.129 302.192 551.878 301.302 560.503 295.378C565.23 292.217 568.545 288.196 570.755 284.267C573.057 280.368 573.947 276.593 573.732 273.861C571.338 273.001 567.839 273.186 563.849 274.383C559.889 275.611 555.5 277.851 551.018 281.044C546.383 284.543 542.761 288.349 540.367 291.879C541.932 284.481 543.129 276.992 543.958 269.502C544.02 269.103 544.05 268.673 544.081 268.244C544.081 268.152 544.081 268.09 544.081 267.998C544.081 267.998 544.081 267.937 544.081 267.906C548.992 268.95 557.771 266.801 565.23 259.649C567.256 257.746 569.036 255.659 570.448 253.541C571.829 251.423 572.904 249.243 573.702 247.156C574.5 245.069 575.052 243.043 575.298 241.201C575.482 239.36 575.421 237.733 575.114 236.382L575.206 236.352Z" fill="url(#paint0_linear_54_1344)"/>
<path d="M54.5869 236.352C57.0732 235.86 60.5418 236.536 64.2559 238.316C66.1283 239.206 68.062 240.373 70.0265 241.785C72.0217 243.197 74.0476 244.885 75.9814 246.819C77.9152 248.752 79.5727 250.686 80.954 252.62C82.3659 254.554 83.6244 256.457 84.5146 258.268C84.6681 258.606 84.7909 258.912 84.9443 259.219C84.8215 256.979 84.6988 254.769 84.576 252.528C84.5146 246.88 84.3611 241.232 84.6988 235.584C84.6988 235.277 84.7295 234.97 84.7602 234.663C79.7569 234.97 71.3771 231.563 65.0539 223.337C63.335 221.127 61.8923 218.825 60.818 216.492C59.7744 214.19 59.0377 211.888 58.5466 209.678C57.503 205.258 57.7485 201.359 58.7614 198.812C61.3091 198.689 64.5935 199.886 68.0314 202.219C71.4385 204.552 75.0298 207.989 78.3142 212.379C79.941 214.558 81.2916 216.768 82.3659 218.886C83.471 221.004 84.4225 223.061 85.0364 224.994C85.1592 225.363 85.2206 225.67 85.3127 226.038C85.9573 218.456 86.9702 210.875 88.4743 203.416C88.4743 203.416 88.5357 203.17 88.5357 203.047C88.597 202.679 88.6584 202.311 88.7505 201.942C88.7505 201.942 88.7505 201.881 88.7505 201.85C83.7472 201.421 76.0121 196.786 70.9474 187.731C68.1234 182.85 66.8342 177.755 66.558 173.273C66.159 168.761 67.0184 164.955 68.3997 162.591C70.9167 162.837 74.0169 164.525 77.0864 167.349C80.1559 170.173 83.1333 174.102 85.7424 178.921C88.2901 183.74 89.7635 188.375 90.5001 192.396C90.5615 192.765 90.5615 193.102 90.6229 193.44C92.526 185.459 94.8895 177.601 97.6828 169.897C92.8023 168.7 85.8652 163.021 82.1818 153.291C78.13 142.854 79.941 132.295 83.3789 128.059C88.3515 129.318 94.4905 136.501 98.0818 146.783C100.046 152.401 100.844 157.649 100.752 161.916C103.638 154.856 106.861 147.95 110.421 141.197C110.421 141.197 110.483 141.074 110.513 141.013C110.697 140.644 110.882 140.245 111.097 139.877H111.127C111.127 139.877 111.158 139.846 111.189 139.816C109.009 138.956 106.584 137.084 104.313 134.26C101.765 131.006 99.5245 126.555 98.266 121.092C96.9461 115.567 97.3451 110.41 98.266 105.99C99.2482 101.57 101.213 98.2238 103.146 96.3207C107.874 98.2852 112.938 106.358 114.933 116.979C116.038 122.841 116.1 128.152 115.363 132.387C119.384 125.573 123.681 118.943 128.439 112.589C128.623 112.344 128.808 112.098 129.022 111.852C124.664 109.305 119.845 101.907 119.047 91.4402C118.648 85.8537 119.722 80.7277 121.287 76.4917C122.976 72.3479 125.339 69.2477 127.549 67.6516C131.908 70.2913 135.806 79.0701 136.144 89.8441C136.451 95.3385 135.745 100.127 134.64 104.056C134.548 104.455 134.394 104.762 134.271 105.13C139.09 99.2061 144.186 93.5275 149.557 88.0945C149.557 88.0945 149.772 87.8796 149.895 87.7568C150.141 87.5113 150.386 87.2657 150.632 87.0201C150.632 87.0201 150.693 87.0201 150.693 86.9894C146.764 83.8279 143.081 75.8165 143.817 65.288C144.278 59.7629 146.058 54.7903 148.238 50.8307C150.57 47.0245 153.333 44.2312 155.758 43.0034C159.656 46.2264 162.234 55.527 160.976 66.2089C160.454 71.6726 159.104 76.3997 157.385 80.0524C157.231 80.4514 157.016 80.7584 156.863 81.1267C162.726 75.7858 168.834 70.7211 175.188 65.994C175.433 65.8099 175.679 65.6564 175.955 65.4722C172.548 61.7274 170.123 53.2863 172.395 43.0034C173.714 37.6625 176.139 32.9048 178.963 29.4055C181.818 25.9677 184.98 23.6349 187.558 22.7754C190.934 26.5509 192.101 36.1584 189.246 46.5334C187.865 51.8129 185.9 56.3558 183.629 59.6708C183.414 60.0085 183.199 60.2847 182.954 60.6224C189.707 56.1102 196.736 51.9664 203.918 48.1602L204.133 48.5592C204.563 46.2878 205.914 43.648 208.277 40.9776C211.009 37.8467 215.122 35.0534 220.125 32.8741C230.285 28.7916 239.77 30.3571 243.454 33.58C242.103 38.4299 235.78 44.7531 226.51 48.4978C221.906 50.5237 217.301 51.2911 213.372 51.4753C210.027 51.6594 207.111 51.1376 205.023 50.1554L205.269 50.6158C198.24 54.3299 191.425 58.3817 184.795 62.8017C185.072 62.7404 185.317 62.6483 185.593 62.5869C189.584 61.973 194.372 62.0958 199.345 63.5691C209.413 66.6693 215.675 73.3915 217.271 78.18C215.767 79.6226 213.035 80.6049 209.443 80.8197C205.914 81.1267 201.555 80.8197 196.613 79.3771C187.619 77.0136 180.13 72.133 177.582 67.805C177.336 67.9585 177.122 68.1427 176.876 68.2962C170.706 72.9004 164.782 77.7809 159.104 82.9684C159.318 82.8763 159.533 82.7842 159.779 82.6921C163.616 81.4643 168.435 80.9425 173.53 81.5871C183.967 83.1833 191.18 88.8925 193.451 93.374C192.162 95.0316 189.614 96.3821 186.085 97.1188C182.677 98.009 178.257 98.2545 173.193 97.6406C163.984 96.6584 155.85 92.9443 152.658 89.046C152.412 89.2916 152.136 89.5371 151.89 89.7827C146.549 95.1543 141.485 100.802 136.696 106.696C136.911 106.573 137.157 106.419 137.371 106.297C140.932 104.455 145.659 103.289 150.785 103.166C161.314 103.166 169.325 107.77 172.241 111.883C171.228 113.725 168.834 115.413 165.519 116.702C162.296 118.084 157.876 118.943 152.842 119.127C143.541 119.496 134.977 117.009 131.232 113.633C131.048 113.848 130.864 114.093 130.711 114.308C126.076 120.478 121.87 126.954 117.972 133.585C121.287 131.037 125.922 128.888 131.417 128.029C141.761 126.433 150.448 129.87 153.916 133.462C152.32 137.329 145.721 141.657 135.775 143.499C130.833 144.42 125.953 144.512 121.84 143.929C118.402 143.468 115.578 142.517 113.644 141.228C113.429 141.627 113.184 142.026 112.969 142.425C109.439 149.086 106.247 155.931 103.423 162.898C106.339 159.86 110.605 157.005 115.977 155.347C125.922 152.216 135.1 154.365 139.029 157.404C138.016 161.456 132.123 166.705 122.576 169.989C113.644 173.028 104.865 173.181 100.323 171.002C97.5907 178.553 95.2579 186.257 93.3855 194.054C93.5389 193.808 93.7231 193.593 93.9073 193.348C96.2401 190.156 100.016 187.055 104.681 184.753C109.286 182.451 114.043 181.5 118.126 181.438C122.177 181.377 125.585 182.144 127.764 183.372C127.58 185.459 126.137 187.976 123.774 190.616C121.349 193.225 117.788 195.896 113.368 198.259C104.958 202.556 96.3629 204.06 91.5438 202.556C91.4824 202.955 91.3596 203.324 91.2982 203.723C89.7942 211.182 88.7812 218.702 88.1366 226.284C88.2901 226.007 88.3822 225.731 88.5357 225.455C89.5179 223.705 90.715 221.894 92.2804 220.175C93.8766 218.456 95.7797 216.83 97.8976 215.326C102.134 212.348 106.646 210.721 110.667 210.046C114.688 209.371 118.156 209.647 120.489 210.537C120.581 212.624 119.568 215.325 117.635 218.272C116.622 219.746 115.363 221.28 113.798 222.815C112.263 224.35 110.544 225.885 108.487 227.389C100.783 232.914 92.5567 235.646 87.5227 234.909C87.5227 235.216 87.492 235.523 87.4613 235.799C87.1237 241.355 87.2772 246.941 87.3385 252.528C87.4613 254.707 87.5841 256.887 87.7069 259.066C87.799 258.759 87.8604 258.452 87.9831 258.145C88.6891 256.273 89.61 254.308 90.8992 252.374C92.2498 250.441 93.8459 248.538 95.749 246.757C97.6521 244.977 99.6166 243.504 101.581 242.337C103.607 241.171 105.663 240.281 107.567 239.636C111.434 238.377 114.903 238.101 117.358 238.623C117.573 239.636 117.542 240.864 117.205 242.214C116.929 243.596 116.468 245.1 115.701 246.696C114.933 248.292 113.89 250.011 112.57 251.761C111.281 253.51 109.807 255.29 107.996 257.071C101.213 263.701 93.4469 267.63 88.3822 267.63C88.3822 267.722 88.3822 267.845 88.4129 267.937C89.2416 275.856 90.5001 283.714 92.1577 291.48C92.7716 287.305 94.644 282.456 98.266 277.974C101.428 273.892 105.295 270.976 108.948 269.165C112.57 267.323 115.977 266.556 118.494 266.709C119.231 268.673 119.016 271.59 118.034 274.966C116.99 278.373 114.872 282.363 111.987 286.385C106.4 293.905 99.0641 299 94.0608 299.706C96.0559 307.595 98.5115 315.391 101.366 323.004C101.366 322.605 101.335 322.206 101.366 321.807C101.489 319.811 101.735 317.693 102.441 315.453C103.177 313.212 104.19 310.91 105.479 308.638C110.728 299.583 118.648 295.01 123.681 294.58C124.787 296.391 125.155 299.246 124.572 302.776C124.295 304.556 123.774 306.49 122.976 308.546C122.27 310.603 121.41 312.721 120.213 314.931C115.793 323.188 109.255 329.327 104.436 330.77C104.497 330.892 104.528 331.015 104.589 331.169C107.659 338.474 111.158 345.595 115.025 352.532C114.964 352.164 114.933 351.796 114.872 351.397C114.688 349.402 114.719 347.222 114.995 344.951C115.271 342.679 116.038 340.193 116.99 337.768C120.858 328.007 128.071 322.328 132.982 321.131C134.333 322.758 135.1 325.521 135.008 329.112C135.008 330.892 134.67 332.949 134.333 335.036C133.995 337.123 133.381 339.395 132.522 341.789C130.803 346.547 128.378 350.813 125.83 354.067C123.651 356.86 121.41 358.794 119.323 359.807C123.528 366.652 128.102 373.252 133.013 379.575C132.951 379.298 132.859 379.022 132.798 378.746C132.337 376.781 132.031 374.633 132 372.331C131.938 370.029 132.153 367.604 132.798 364.995C135.223 354.712 141.515 348.02 146.181 346.117C147.716 347.529 148.882 350.2 149.312 353.76C149.496 355.571 149.65 357.536 149.619 359.654C149.557 361.802 149.312 364.135 148.79 366.621C146.795 375.922 142.651 383.504 138.477 386.358C138.783 386.727 139.09 387.126 139.428 387.525C144.247 393.203 149.373 398.606 154.745 403.762C153.057 399.926 152.074 394.922 152.381 389.489C153.333 378.93 158.551 371.318 162.879 368.77C164.598 369.967 166.102 372.453 167.054 375.922C168.189 379.237 168.773 383.596 168.496 388.722C168.128 393.909 167.238 398.514 165.795 402.35C164.567 405.604 162.971 408.213 161.283 409.779C167.238 415.028 173.469 419.969 179.946 424.574C179.823 424.39 179.7 424.236 179.577 424.052C177.582 420.522 176.047 415.948 175.618 410.822C175.126 405.758 176.139 400.846 177.521 397.071C178.963 393.265 180.928 390.379 182.892 388.814C184.795 389.704 186.484 392.16 188.141 395.229C189.737 398.391 190.934 402.657 191.364 407.784C192.377 417.023 190.505 425.648 187.343 429.608C187.466 429.7 187.589 429.761 187.711 429.853C206.343 441.916 226.725 451.217 248.119 457.233L247.352 459.904C226.08 453.918 205.76 444.71 187.159 432.8C186.852 432.616 186.545 432.401 186.207 432.217C186.115 432.155 185.992 432.094 185.9 432.033C185.9 432.033 185.839 431.971 185.808 431.971C183.537 436.453 176.446 441.824 166.041 443.359C160.577 444.034 155.328 443.359 151.031 442.07C146.641 440.842 143.541 438.479 141.822 436.391C142.989 434.12 145.69 431.879 149.435 430.099C153.21 428.257 157.845 427.091 163.37 426.354C168.834 425.709 173.714 425.986 177.613 426.937C178.073 427.029 178.472 427.152 178.902 427.275C172.149 422.486 165.642 417.36 159.441 411.866C158.091 413.769 155.758 415.703 152.473 417.238C148.729 419.018 143.725 420.338 138.231 420.154C132.706 420.031 127.58 418.65 123.467 416.746C119.538 414.659 116.622 412.05 115.24 409.717C118.218 405.604 127.304 402.412 137.985 403.026C144.094 403.149 149.25 404.376 153.179 406.095C147.654 400.816 142.375 395.229 137.402 389.428C137.402 389.428 137.371 389.397 137.341 389.366C137.034 388.998 136.727 388.66 136.42 388.292H136.451C136.451 388.292 136.451 388.231 136.42 388.231C132.951 391.853 124.387 395.045 114.227 393.234C111.496 392.774 108.886 392.037 106.492 391.085C104.098 390.134 101.919 388.998 100.138 387.678C96.5164 385.038 93.9994 382.061 92.9557 379.544C96.4857 375.922 105.97 374.111 116.53 376.26C119.139 376.812 121.656 377.487 123.958 378.255C126.26 379.022 128.286 379.943 130.066 380.956C130.404 381.14 130.68 381.355 130.987 381.539C125.953 375.063 121.287 368.34 116.99 361.373C115.148 362.785 112.232 363.951 108.733 364.442C104.651 364.995 99.7087 364.688 94.3677 362.969C91.6972 362.109 89.2416 361.004 87.0009 359.715C84.7602 358.426 82.9492 356.891 81.3223 355.326C78.0993 352.195 76.0121 348.88 75.3675 346.24C79.3885 343.201 89.0882 342.802 99.2482 346.485C101.827 347.406 104.037 348.511 106.216 349.616C108.395 350.721 110.298 351.918 111.895 353.146C112.109 353.33 112.294 353.484 112.508 353.668C108.825 347.099 105.51 340.316 102.563 333.409H102.533C102.379 333.072 102.256 332.703 102.103 332.335C102.072 332.243 102.011 332.151 101.98 332.028C101.98 332.028 101.98 331.967 101.949 331.936C97.5293 334.392 88.7812 334.791 79.3578 330.186C76.8408 328.959 74.508 327.485 72.5435 325.858C70.6404 324.232 68.9829 322.451 67.6323 320.671C64.9005 317.11 63.3043 313.55 63.0281 310.818C67.4481 308.393 77.1171 309.467 86.6633 314.563C89.0575 315.852 91.1754 317.233 93.0478 318.706C94.9509 320.149 96.7312 321.592 98.1432 323.065C98.3581 323.28 98.4809 323.464 98.6957 323.679C95.8718 316.067 93.4162 308.332 91.421 300.443C86.694 302.193 77.9459 301.302 69.3205 295.378C64.5935 292.217 61.2784 288.196 59.0684 284.267C56.7663 280.368 55.8761 276.593 56.091 273.861C58.4852 273.002 61.9844 273.186 65.9748 274.383C69.9344 275.611 74.3238 277.851 78.8053 281.044C83.4403 284.543 87.0623 288.349 89.4565 291.879C87.8911 284.481 86.6939 276.992 85.8652 269.502C85.8038 269.103 85.7731 268.673 85.7424 268.244C85.7424 268.152 85.7424 268.09 85.7424 267.998C85.7424 267.998 85.7424 267.937 85.7424 267.906C80.8312 268.95 72.0524 266.801 64.5935 259.649C62.5676 257.746 60.7873 255.659 59.3754 253.541C57.9941 251.423 56.9197 249.244 56.1217 247.156C55.3236 245.069 54.7711 243.043 54.5255 241.201C54.3414 239.36 54.4028 237.733 54.7097 236.382L54.5869 236.352Z" fill="url(#paint1_linear_54_1344)"/>
<path d="M314.543 0L319.792 10.6205L331.518 12.3087L323.015 20.5657L325.041 32.2605L314.543 26.7354L304.076 32.2605L306.071 20.5657L297.6 12.3087L309.325 10.6205L314.543 0Z" fill="url(#paint2_linear_54_1344)"/>
<path d="M277.034 11.5105L280.533 18.6011L288.36 19.7368L282.713 25.2619L284.032 33.0584L277.034 29.375L270.005 33.0584L271.355 25.2619L265.677 19.7368L273.535 18.6011L277.034 11.5105Z" fill="url(#paint3_linear_54_1344)"/>
<path d="M352.083 11.5105L355.583 18.6011L363.41 19.7368L357.731 25.2619L359.082 33.0584L352.083 29.375L345.054 33.0584L346.405 25.2619L340.726 19.7368L348.553 18.6011L352.083 11.5105Z" fill="url(#paint4_linear_54_1344)"/>
<path d="M314.912 165.499L214.999 177.439V241.377C214.999 241.377 246.462 271.581 318.564 271.581C390.667 271.581 414.824 241.377 414.824 241.377V177.439L314.912 165.499Z" fill="url(#paint5_linear_54_1344)"/>
<g style="mix-blend-mode:overlay" opacity="0.6">
<path d="M312.978 248.468C303.217 249.389 292.289 249.941 280.103 249.941C254.074 249.941 233.785 247.424 218.406 244.232C228.29 251.721 260.029 271.643 318.564 271.643C390.667 271.643 414.824 241.439 414.824 241.439V177.532L381.182 173.51C381.182 212.37 351.654 244.907 312.978 248.529V248.468Z" fill="#2C4057"/>
</g>
<path d="M314.912 124.214L153.578 165.499V170.778L314.912 212.032L476.245 170.778V165.499L314.912 124.214Z" fill="url(#paint6_linear_54_1344)"/>
<path d="M314.912 124.214L153.578 165.499L314.912 206.753L476.245 165.499L314.912 124.214Z" fill="url(#paint7_linear_54_1344)"/>
<path style="mix-blend-mode:lighten" opacity="0.4" d="M265.646 194.168L329.86 128.051L314.912 124.214L153.578 165.499L265.646 194.168Z" fill="url(#paint8_linear_54_1344)"/>
<path d="M216.771 341.995C216.771 341.995 246.453 335.211 261.862 315.843C277.27 296.474 298.818 289.138 298.818 289.138L287.277 283.951C284.821 282.846 276.964 286.529 274.723 287.419C261.892 292.422 252.315 303.104 239.454 308.353C229.969 312.221 216.034 318.145 205.567 315.137C205.567 315.137 202.866 334.229 216.74 342.026L216.771 341.995Z" fill="url(#paint9_linear_54_1344)"/>
<path d="M268.86 336.747C268.86 336.747 269.075 312.835 281.322 297.764C293.57 282.693 295.565 264.92 295.565 264.92L301.489 272.87C302.747 274.559 301.243 281.219 300.967 283.092C299.31 293.774 292.71 302.921 290.868 313.664C289.487 321.583 287.308 333.278 291.39 340.799C291.39 340.799 277.209 346.078 268.891 336.777L268.86 336.747Z" fill="url(#paint10_linear_54_1344)"/>
<path d="M460.827 292.116C460.827 292.116 453.491 315.198 430.684 346.2C431.114 345.003 387.865 323.946 384.673 322.289C359.441 309.397 333.719 298.592 306.462 291.133C296.885 288.524 287.277 286.192 277.7 283.49C268.277 280.82 258.884 278.18 249.399 275.817C224.813 269.708 183.835 267.744 183.835 267.744L199.305 256.356L406.159 284.166L429.641 253.655L460.858 292.116H460.827Z" fill="#D9D9D9"/>
<path d="M193.381 218.417C198.937 215.163 204.124 214.672 204.124 214.672C204.124 214.672 296.394 228.178 332.43 232.69C368.496 237.202 449.9 242.789 449.9 242.789L431.022 323.21C422.427 318.759 326.321 290.612 297.437 281.833C268.553 273.054 191.815 257.707 191.815 257.707C189.79 256.264 188.286 254.392 187.181 252.335C180.642 240.425 181.901 225.17 193.35 218.417H193.381Z" fill="#F3F3F3"/>
<path d="M183.497 241.254C184.326 242.267 185.308 243.188 186.413 243.955C186.413 243.955 266.957 259.855 297.253 268.972C325.308 277.413 413.925 303.135 433.999 310.563L431.053 323.179C422.458 318.728 326.352 290.581 297.468 281.802C268.584 273.023 191.846 257.676 191.846 257.676C189.82 256.233 188.316 254.361 187.211 252.304C185.277 248.805 184.05 244.999 183.528 241.223L183.497 241.254Z" fill="#EBEBEB"/>
<path d="M431.789 323.425C439.862 325.635 456.53 309.919 462.085 287.726C467.641 265.534 460.029 245.275 451.956 243.065C443.883 240.855 432.833 257.093 427.277 279.254C421.721 301.447 423.747 321.214 431.82 323.394L431.789 323.425Z" fill="url(#paint11_linear_54_1344)"/>
<g style="mix-blend-mode:multiply">
<path d="M424.76 292.791C425.098 292.883 425.436 292.944 425.804 292.944C427.83 292.944 429.702 290.796 431.298 288.003C434.859 281.771 434.583 274.036 430.746 267.928C432.649 262.771 434.828 258.167 437.161 254.361H437.315C437.315 254.361 445.94 257.093 447.382 271.212C447.628 273.576 447.536 275.909 447.229 278.149C447.229 278.149 446.37 286.13 442.103 293.65C435.289 307.218 427.676 307.709 424.269 307.095C423.962 302.859 424.116 298.009 424.76 292.791Z" fill="#B8BBBB"/>
<path d="M425.804 292.975C425.435 292.975 425.067 292.913 424.76 292.821C425.282 288.524 426.111 283.95 427.277 279.285C428.29 275.294 429.457 271.488 430.776 267.958C434.583 274.036 434.859 281.771 431.329 288.033C429.733 290.826 427.86 293.005 425.835 292.975H425.804Z" fill="#A6A8A8"/>
</g>
<path d="M298.297 227.625C306.983 226.244 315.578 230.511 315.578 230.511C315.578 230.511 284.975 250.309 298.818 289.108C290.162 289.875 280.893 284.381 280.893 284.381C267.08 245.582 298.297 227.595 298.297 227.595V227.625Z" fill="url(#paint12_linear_54_1344)"/>
<path d="M436.28 251.69L434.622 251.629C434.622 251.629 434.837 244.569 434.622 233.335C434.561 229.713 434.438 228.147 434.346 226.766C434.131 223.85 434.008 221.947 434.561 203.561C434.592 202.486 434.653 201.351 434.714 200.184C435.113 193.032 435.574 184.131 430.202 179.526C426.089 175.996 420.257 175.874 414.609 175.751C412.399 175.689 410.281 175.659 408.286 175.413C398.034 174.155 387.567 173.019 377.468 171.945L369.948 171.147C345.238 168.476 324.028 166.389 323.813 166.358L323.967 164.701C324.182 164.701 345.392 166.819 370.101 169.489L377.591 170.287C387.69 171.361 398.157 172.497 408.439 173.756C410.343 174.001 412.399 174.032 414.579 174.093C420.503 174.216 426.642 174.37 431.215 178.268C437.201 183.394 436.71 192.756 436.311 200.276C436.249 201.443 436.188 202.548 436.157 203.622C435.605 221.916 435.727 223.819 435.942 226.674C436.034 228.086 436.157 229.651 436.219 233.335C436.433 244.631 436.219 251.66 436.219 251.721L436.28 251.69Z" fill="url(#paint13_linear_54_1344)"/>
<path d="M325.747 165.498C325.747 168.138 320.897 170.287 314.912 170.287C308.926 170.287 304.076 168.138 304.076 165.498C304.076 162.859 308.926 160.71 314.912 160.71C320.897 160.71 325.747 162.859 325.747 165.498Z" fill="url(#paint14_linear_54_1344)"/>
<path d="M440.823 244.723C440.823 247.731 438.367 250.186 435.359 250.186C432.351 250.186 429.895 247.731 429.895 244.723C429.895 241.715 432.351 239.259 435.359 239.259C438.367 239.259 440.823 241.715 440.823 244.723Z" fill="url(#paint15_linear_54_1344)"/>
<path d="M435.359 247.608C431.062 247.608 430.233 246.81 430.233 246.81V251.261H440.485V246.81C440.485 246.81 439.656 247.608 435.359 247.608Z" fill="url(#paint16_linear_54_1344)"/>
<path d="M442.818 252.765C441.099 250.462 438.367 249.05 435.451 249.05C432.228 249.05 429.159 250.8 427.532 253.593C423.48 260.438 426.672 270.629 431.123 276.523C431.399 276.891 431.645 277.229 431.891 277.597C431.952 277.689 432.013 277.781 432.075 277.873C432.259 278.149 432.443 278.456 432.627 278.733C432.658 278.794 432.719 278.886 432.75 278.947C432.934 279.254 433.118 279.592 433.303 279.899C433.303 279.93 433.333 279.96 433.364 280.022C433.548 280.39 433.763 280.758 433.916 281.096C434.622 282.477 435.175 283.828 435.605 284.994C438.183 282.754 439.994 279.838 441.652 276.891C443.401 273.791 444.905 270.537 445.488 267.007C447.023 257.614 442.818 252.734 442.818 252.765Z" fill="url(#paint17_linear_54_1344)"/>
<g style="mix-blend-mode:darken">
<path d="M432.566 250.862C432.566 250.862 432.289 251.138 431.86 251.691C431.43 252.243 430.878 253.041 430.294 254.054C429.987 254.545 429.742 255.128 429.466 255.742C429.343 256.049 429.251 256.387 429.128 256.694C429.005 257.031 428.882 257.369 428.821 257.707C428.729 258.044 428.637 258.413 428.545 258.781C428.483 259.149 428.453 259.518 428.391 259.886L428.299 260.439V261.022V262.188C428.361 262.956 428.422 263.723 428.545 264.46C428.729 265.196 428.852 265.933 429.066 266.639C429.312 267.314 429.558 267.99 429.772 268.634C430.049 269.248 430.356 269.801 430.601 270.353C430.724 270.629 430.847 270.875 430.97 271.12C431.092 271.366 431.246 271.581 431.369 271.765C431.614 272.164 431.829 272.532 432.013 272.839C432.351 273.453 432.566 273.791 432.566 273.791C432.566 273.791 432.32 273.484 431.89 272.932C431.676 272.655 431.43 272.318 431.123 271.949C430.97 271.765 430.816 271.55 430.663 271.335C430.54 271.09 430.386 270.844 430.233 270.599C429.926 270.077 429.588 269.524 429.281 268.91C429.005 268.266 428.729 267.621 428.422 266.915C428.176 266.209 427.992 265.442 427.808 264.675C427.685 263.876 427.593 263.078 427.532 262.28V261.053L427.593 260.439L427.685 259.855C427.747 259.456 427.808 259.057 427.869 258.689C427.992 258.321 428.084 257.952 428.176 257.584C428.268 257.216 428.391 256.878 428.545 256.54C428.698 256.203 428.821 255.865 428.974 255.558C429.312 254.944 429.588 254.361 429.957 253.87C430.264 253.348 430.632 252.918 430.939 252.55C431.246 252.182 431.553 251.875 431.798 251.629C432.289 251.138 432.627 250.892 432.627 250.892L432.566 250.862Z" fill="#E48A22"/>
</g>
<g style="mix-blend-mode:darken">
<path d="M434.407 250.862C434.407 250.862 434.315 251.261 434.162 251.997C434.101 252.366 434.008 252.796 433.916 253.287C433.824 253.778 433.732 254.361 433.64 254.975C433.456 256.203 433.272 257.645 433.118 259.211C433.026 259.978 432.995 260.776 432.934 261.605C432.873 262.403 432.873 263.232 432.873 264.061C432.873 264.889 432.934 265.718 432.934 266.516C433.026 267.314 433.057 268.112 433.18 268.88C433.333 269.647 433.395 270.384 433.579 271.059C433.763 271.734 433.916 272.41 434.101 272.993C434.315 273.576 434.53 274.098 434.684 274.589C434.837 275.08 435.083 275.449 435.236 275.786C435.574 276.431 435.758 276.83 435.758 276.83C435.758 276.83 435.512 276.492 435.113 275.878C434.929 275.571 434.622 275.203 434.407 274.743C434.193 274.282 433.916 273.76 433.671 273.177C433.456 272.594 433.241 271.919 432.996 271.243C432.781 270.537 432.658 269.801 432.474 269.003C432.351 268.235 432.259 267.406 432.167 266.578C432.167 265.749 432.075 264.889 432.075 264.061C432.075 263.232 432.075 262.372 432.167 261.544C432.228 260.715 432.29 259.917 432.412 259.119C432.504 258.321 432.658 257.584 432.781 256.878C432.903 256.172 433.057 255.497 433.21 254.883C433.487 253.655 433.824 252.642 434.039 251.967C434.254 251.261 434.438 250.892 434.438 250.892L434.407 250.862Z" fill="#E48A22"/>
</g>
<g style="mix-blend-mode:darken">
<path d="M435.758 253.808C435.758 253.808 435.881 254.177 436.096 254.883C436.28 255.558 436.556 256.54 436.771 257.737C436.894 258.32 436.986 258.996 437.109 259.671C437.201 260.377 437.354 261.083 437.416 261.85C437.6 263.354 437.723 264.981 437.784 266.608C437.815 267.406 437.784 268.235 437.784 269.033C437.784 269.831 437.723 270.629 437.692 271.397C437.692 272.164 437.569 272.901 437.508 273.576C437.446 274.282 437.354 274.926 437.262 275.54C437.109 276.737 436.894 277.75 436.74 278.426C436.587 279.132 436.495 279.5 436.495 279.5C436.495 279.5 436.495 279.101 436.556 278.395C436.556 278.057 436.618 277.628 436.648 277.136C436.648 276.645 436.71 276.093 436.74 275.479C436.771 274.865 436.832 274.22 436.832 273.545C436.832 272.839 436.894 272.133 436.894 271.366C436.894 270.598 436.894 269.831 436.894 269.033C436.894 268.235 436.894 267.437 436.832 266.639C436.802 265.043 436.679 263.416 436.587 261.912C436.464 260.408 436.341 258.996 436.188 257.799C436.034 256.601 435.912 255.589 435.819 254.883C435.697 254.177 435.635 253.778 435.635 253.778L435.758 253.808Z" fill="#E48A22"/>
</g>
<g style="mix-blend-mode:darken">
<path d="M436.587 250.524C436.587 250.524 436.802 250.831 437.109 251.445C437.416 252.028 437.876 252.887 438.275 253.962C438.705 255.036 439.165 256.294 439.534 257.676C439.687 258.382 439.902 259.088 440.025 259.824C440.178 260.561 440.301 261.328 440.393 262.096C440.516 262.863 440.547 263.631 440.608 264.367C440.669 265.135 440.639 265.871 440.639 266.577C440.639 267.283 440.577 267.989 440.516 268.664C440.485 269.002 440.454 269.309 440.424 269.616C440.362 269.923 440.332 270.23 440.27 270.506C440.178 271.059 440.086 271.581 439.994 272.041C439.871 272.501 439.779 272.87 439.687 273.207C439.503 273.852 439.411 274.22 439.411 274.22C439.411 274.22 439.472 273.852 439.534 273.177C439.595 272.839 439.626 272.44 439.718 271.98C439.748 271.519 439.81 270.997 439.841 270.445C439.841 270.169 439.902 269.862 439.933 269.555C439.933 269.248 439.933 268.941 439.933 268.603C439.933 267.959 439.963 267.283 439.933 266.577C439.933 265.871 439.902 265.135 439.81 264.398C439.748 263.661 439.687 262.925 439.564 262.157C439.503 261.42 439.349 260.653 439.227 259.947C439.104 259.21 438.95 258.504 438.797 257.798C438.613 257.123 438.49 256.448 438.306 255.803C438.122 255.189 437.968 254.575 437.784 254.054C437.446 252.979 437.139 252.058 436.925 251.445C436.679 250.831 436.556 250.462 436.556 250.462L436.587 250.524Z" fill="#E48A22"/>
</g>
<g style="mix-blend-mode:darken">
<path d="M440.823 253.809C440.823 253.809 441.529 255.22 442.173 257.492C442.327 258.075 442.511 258.658 442.634 259.334C442.787 259.978 442.941 260.684 443.033 261.421C443.156 262.158 443.217 262.894 443.278 263.692C443.309 264.46 443.34 265.258 443.34 266.056C443.278 266.854 443.309 267.621 443.186 268.419C443.094 269.187 443.002 269.954 442.818 270.66C442.664 271.397 442.511 272.072 442.235 272.717C441.989 273.361 441.836 273.975 441.529 274.497C441.283 275.019 441.007 275.51 440.792 275.94C440.546 276.339 440.301 276.676 440.086 276.953C439.687 277.505 439.472 277.812 439.472 277.812C439.472 277.812 439.656 277.474 439.963 276.861C440.117 276.554 440.332 276.185 440.516 275.786C440.669 275.356 440.853 274.835 441.099 274.313C441.345 273.791 441.467 273.177 441.652 272.533C441.866 271.919 441.958 271.213 442.081 270.507C442.235 269.801 442.265 269.064 442.388 268.327C442.48 267.591 442.48 266.823 442.511 266.056C442.511 265.288 442.511 264.521 442.48 263.754C442.419 262.986 442.419 262.25 442.296 261.544C442.204 260.838 442.143 260.132 442.02 259.487C441.928 258.843 441.805 258.229 441.713 257.645C441.467 256.51 441.283 255.558 441.099 254.914C440.946 254.238 440.823 253.87 440.823 253.87V253.809Z" fill="#E48A22"/>
</g>
<path d="M631 421.049H503.467V550.103H631L605.684 486.172L631 421.049Z" fill="url(#paint18_linear_54_1344)"/>
<path d="M534.178 511.513L503.467 550.103V470.575L534.178 511.513Z" fill="#6B6B6B"/>
<path d="M0 421.049H127.533V550.103H0L25.6688 486.172L0 421.049Z" fill="url(#paint19_linear_54_1344)"/>
<path d="M96.7867 511.513L127.533 550.103V470.575L96.7867 511.513Z" fill="#6B6B6B"/>
<path d="M534.503 512H97.0769V382.947H534.503V512Z" fill="#313131"/>
<path d="M490.197 437.971V467.992H482.009V437.971H466.999V429.784H505.207V437.971H490.197Z" fill="#ED802C"/>
<path d="M450.624 429.784C457.902 429.784 461.541 433.423 461.541 440.7V442.065C461.541 449.343 457.902 452.981 450.624 452.981H449.259L464.27 467.992H452.698L437.688 452.981H431.52V467.992H423.333V429.784H450.624ZM453.353 440.7C453.353 438.881 452.443 437.971 450.624 437.971H431.52V444.794H450.624C452.443 444.794 453.353 443.884 453.353 442.065V440.7Z" fill="#ED802C"/>
<path d="M417.874 429.784V437.971H387.854V444.794H415.145V452.981H387.854V459.804H417.874V467.992H379.666V429.784H417.874Z" fill="#ED802C"/>
<path d="M360.562 429.784C369.66 429.784 374.208 434.332 374.208 443.429H366.021C366.021 439.791 364.201 437.971 360.562 437.971H349.646C346.007 437.971 344.188 439.791 344.188 443.429V454.346C344.188 457.985 346.007 459.804 349.646 459.804H360.562C364.201 459.804 366.021 457.985 366.021 454.346H374.208C374.208 463.443 369.66 467.992 360.562 467.992H349.646C340.549 467.992 336 463.443 336 454.346V443.429C336 434.332 340.549 429.784 349.646 429.784H360.562Z" fill="#ED802C"/>
<path d="M324.756 429.784H336.328L317.224 448.888L336.328 467.992H324.756L309.746 452.981H300.521V467.992H292.334V429.784H300.521V444.794H309.746L324.756 429.784Z" fill="#ED802C"/>
<path d="M273.23 429.784C282.327 429.784 286.876 434.332 286.876 443.429H278.688C278.688 439.791 276.869 437.971 273.23 437.971H262.313C258.675 437.971 256.855 439.791 256.855 443.429V454.346C256.855 457.985 258.675 459.804 262.313 459.804H273.23C276.869 459.804 278.688 457.985 278.688 454.346H286.876C286.876 463.443 282.327 467.992 273.23 467.992H262.313C253.216 467.992 248.668 463.443 248.668 454.346V443.429C248.668 434.332 253.216 429.784 262.313 429.784H273.23Z" fill="#ED802C"/>
<path d="M230.437 454.346L224.105 443.375L217.774 454.346H230.437ZM224.105 427L247.767 467.992H238.297L235.158 462.533H213.052L209.887 467.992H200.444L224.105 427Z" fill="#ED802C"/>
<path d="M188.627 429.784C195.904 429.784 199.543 433.423 199.543 440.7V442.065C199.543 449.343 195.904 452.981 188.627 452.981H187.262L202.272 467.992H190.701L175.69 452.981H169.523V467.992H161.335V429.784H188.627ZM191.356 440.7C191.356 438.881 190.446 437.971 188.627 437.971H169.523V444.794H188.627C190.446 444.794 191.356 443.884 191.356 442.065V440.7Z" fill="#ED802C"/>
<path d="M140.867 437.971V467.992H132.679V437.971H117.669V429.784H155.877V437.971H140.867Z" fill="#ED802C"/>
<defs>
<linearGradient id="paint0_linear_54_1344" x1="344.098" y1="-114.6" x2="855.955" y2="39.9183" gradientUnits="userSpaceOnUse">
<stop stop-color="#FBAE2C"/>
<stop offset="1" stop-color="#CF1D2D"/>
</linearGradient>
<linearGradient id="paint1_linear_54_1344" x1="16.8162" y1="-114.6" x2="528.673" y2="39.9184" gradientUnits="userSpaceOnUse">
<stop stop-color="#FBAE2C"/>
<stop offset="1" stop-color="#CF1D2D"/>
</linearGradient>
<linearGradient id="paint2_linear_54_1344" x1="291.015" y1="-10.1385" x2="355.652" y2="36.1591" gradientUnits="userSpaceOnUse">
<stop stop-color="#FBAE2C"/>
<stop offset="1" stop-color="#CF1D2D"/>
</linearGradient>
<linearGradient id="paint3_linear_54_1344" x1="261.273" y1="4.73867" x2="304.464" y2="35.714" gradientUnits="userSpaceOnUse">
<stop stop-color="#FBAE2C"/>
<stop offset="1" stop-color="#CF1D2D"/>
</linearGradient>
<linearGradient id="paint4_linear_54_1344" x1="336.322" y1="4.73867" x2="379.513" y2="35.714" gradientUnits="userSpaceOnUse">
<stop stop-color="#FBAE2C"/>
<stop offset="1" stop-color="#CF1D2D"/>
</linearGradient>
<linearGradient id="paint5_linear_54_1344" x1="214.999" y1="218.54" x2="414.824" y2="218.54" gradientUnits="userSpaceOnUse">
<stop stop-color="#3E3E3E"/>
<stop offset="0.54" stop-color="#242424"/>
<stop offset="1" stop-color="#00141D"/>
</linearGradient>
<linearGradient id="paint6_linear_54_1344" x1="264.388" y1="87.9937" x2="346.528" y2="218.325" gradientUnits="userSpaceOnUse">
<stop stop-color="#7D7D7D"/>
<stop offset="0.54" stop-color="#363636"/>
<stop offset="1" stop-color="#00141D"/>
</linearGradient>
<linearGradient id="paint7_linear_54_1344" x1="153.578" y1="165.499" x2="476.245" y2="165.499" gradientUnits="userSpaceOnUse">
<stop stop-color="#858585"/>
<stop offset="0.54" stop-color="#272727"/>
<stop offset="1" stop-color="#00141D"/>
</linearGradient>
<linearGradient id="paint8_linear_54_1344" x1="194.372" y1="131.151" x2="384.068" y2="193.769" gradientUnits="userSpaceOnUse">
<stop stop-color="#FEFEFF" stop-opacity="0"/>
<stop offset="0.16" stop-color="#FEFEFF" stop-opacity="0.01"/>
<stop offset="0.29" stop-color="#FEFEFF" stop-opacity="0.05"/>
<stop offset="0.41" stop-color="#FEFEFF" stop-opacity="0.12"/>
<stop offset="0.52" stop-color="#FEFEFF" stop-opacity="0.21"/>
<stop offset="0.63" stop-color="#FEFEFF" stop-opacity="0.33"/>
<stop offset="0.74" stop-color="#FEFEFF" stop-opacity="0.48"/>
<stop offset="0.84" stop-color="#FEFEFF" stop-opacity="0.66"/>
<stop offset="0.94" stop-color="#FEFEFF" stop-opacity="0.86"/>
<stop offset="1" stop-color="#FEFEFF"/>
</linearGradient>
<linearGradient id="paint9_linear_54_1344" x1="200.112" y1="323.639" x2="331.793" y2="325.194" gradientUnits="userSpaceOnUse">
<stop stop-color="#FBAE2C"/>
<stop offset="1" stop-color="#CF1D2D"/>
</linearGradient>
<linearGradient id="paint10_linear_54_1344" x1="263.037" y1="337.452" x2="273.735" y2="289.082" gradientUnits="userSpaceOnUse">
<stop stop-color="#FBAE2C"/>
<stop offset="1" stop-color="#CF1D2D"/>
</linearGradient>
<linearGradient id="paint11_linear_54_1344" x1="464.203" y1="258.965" x2="420.801" y2="309.213" gradientUnits="userSpaceOnUse">
<stop stop-color="#CDCDCD"/>
<stop offset="0.3" stop-color="#C5C5C5"/>
<stop offset="0.66" stop-color="#B1B1B0"/>
<stop offset="1" stop-color="#A4A4A4"/>
</linearGradient>
<linearGradient id="paint12_linear_54_1344" x1="290.663" y1="288.34" x2="290.958" y2="232.845" gradientUnits="userSpaceOnUse">
<stop stop-color="#FBAE2C"/>
<stop offset="1" stop-color="#CF1D2D"/>
</linearGradient>
<linearGradient id="paint13_linear_54_1344" x1="323.875" y1="208.165" x2="436.587" y2="208.165" gradientUnits="userSpaceOnUse">
<stop stop-color="#CF8800"/>
<stop offset="0.02" stop-color="#D18F0A"/>
<stop offset="0.11" stop-color="#DEB13A"/>
<stop offset="0.18" stop-color="#E6C757"/>
<stop offset="0.21" stop-color="#E9CF63"/>
<stop offset="0.3" stop-color="#E1C64F"/>
<stop offset="0.46" stop-color="#CFB11E"/>
<stop offset="0.47" stop-color="#CFB11D"/>
<stop offset="0.74" stop-color="#CF9E0F"/>
<stop offset="1" stop-color="#CF8800"/>
</linearGradient>
<linearGradient id="paint14_linear_54_1344" x1="314.912" y1="114.882" x2="314.912" y2="174.308" gradientUnits="userSpaceOnUse">
<stop stop-color="#262727"/>
<stop offset="0.54" stop-color="#2D2D2F"/>
<stop offset="1" stop-color="#00141D"/>
</linearGradient>
<linearGradient id="paint15_linear_54_1344" x1="430.97" y1="223.819" x2="447.269" y2="301.785" gradientUnits="userSpaceOnUse">
<stop stop-color="#CF8800"/>
<stop offset="0.02" stop-color="#D18F0A"/>
<stop offset="0.11" stop-color="#DEB13A"/>
<stop offset="0.18" stop-color="#E6C757"/>
<stop offset="0.21" stop-color="#E9CF63"/>
<stop offset="0.3" stop-color="#E1C64F"/>
<stop offset="0.46" stop-color="#CFB11E"/>
<stop offset="0.47" stop-color="#CFB11D"/>
<stop offset="0.74" stop-color="#CF9E0F"/>
<stop offset="1" stop-color="#CF8800"/>
</linearGradient>
<linearGradient id="paint16_linear_54_1344" x1="430.202" y1="249.05" x2="440.454" y2="249.05" gradientUnits="userSpaceOnUse">
<stop stop-color="#DC9352"/>
<stop offset="0.5" stop-color="#D16D1C"/>
<stop offset="1" stop-color="#B85923"/>
</linearGradient>
<linearGradient id="paint17_linear_54_1344" x1="427.931" y1="224.464" x2="444.199" y2="302.429" gradientUnits="userSpaceOnUse">
<stop stop-color="#CF8800"/>
<stop offset="0.02" stop-color="#D18F0A"/>
<stop offset="0.11" stop-color="#DEB13A"/>
<stop offset="0.18" stop-color="#E6C757"/>
<stop offset="0.21" stop-color="#E9CF63"/>
<stop offset="0.3" stop-color="#E1C64F"/>
<stop offset="0.46" stop-color="#CFB11E"/>
<stop offset="0.47" stop-color="#CFB11D"/>
<stop offset="0.74" stop-color="#CF9E0F"/>
<stop offset="1" stop-color="#CF8800"/>
</linearGradient>
<linearGradient id="paint18_linear_54_1344" x1="631" y1="490.533" x2="503.035" y2="490.533" gradientUnits="userSpaceOnUse">
<stop stop-color="#858585"/>
<stop offset="0.54" stop-color="#272727"/>
<stop offset="1" stop-color="#00141D"/>
</linearGradient>
<linearGradient id="paint19_linear_54_1344" x1="0" y1="485.552" x2="127.533" y2="485.552" gradientUnits="userSpaceOnUse">
<stop stop-color="#858585"/>
<stop offset="0.54" stop-color="#272727"/>
<stop offset="1" stop-color="#00141D"/>
</linearGradient>
</defs>
</svg>
