<svg width="64" height="64" viewBox="0 0 64 64" fill="none" xmlns="http://www.w3.org/2000/svg">
<path opacity="0.4" d="M53.6 18.5068C53.6 19.9468 52.8267 21.2534 51.6 21.92L46.96 24.4267L43.0133 26.5335L34.8267 30.9601C33.9467 31.4401 32.9867 31.6801 32 31.6801C31.0133 31.6801 30.0533 31.4401 29.1733 30.9601L12.4 21.92C11.1733 21.2534 10.4 19.9468 10.4 18.5068C10.4 17.0668 11.1733 15.76 12.4 15.0934L17.6533 12.2667L21.84 10.0001L29.1733 6.0535C30.9333 5.0935 33.0667 5.0935 34.8267 6.0535L51.6 15.0934C52.8267 15.76 53.6 17.0668 53.6 18.5068Z" fill="#E0B220"/>
<path opacity="0.4" d="M26.4 34.1068L10.8 26.2935C9.59997 25.6802 8.21332 25.7602 7.06666 26.4535C5.91999 27.1468 5.25334 28.3736 5.25334 29.7069V44.4535C5.25334 47.0135 6.66663 49.3068 8.95997 50.4535L24.56 58.2403C25.0933 58.507 25.68 58.6402 26.2667 58.6402C26.96 58.6402 27.6534 58.4536 28.2667 58.0536C29.4134 57.3603 30.08 56.1335 30.08 54.8002V40.0536C30.1067 37.5469 28.6933 35.2535 26.4 34.1068Z" fill="#E0B220"/>
<path opacity="0.4" d="M58.7467 29.7336V44.4802C58.7467 47.0135 57.3334 49.3068 55.04 50.4535L39.44 58.2668C38.9067 58.5335 38.32 58.6669 37.7333 58.6669C37.04 58.6669 36.3467 58.4803 35.7067 58.0803C34.5867 57.3869 33.8933 56.1602 33.8933 54.8268V40.1068C33.8933 37.5468 35.3067 35.2535 37.6 34.1068L43.3333 31.2534L47.3333 29.2534L53.2 26.3202C54.4 25.7068 55.7867 25.7602 56.9334 26.4802C58.0534 27.1735 58.7467 28.4003 58.7467 29.7336Z" fill="#E0B220"/>
<path d="M46.96 24.4266L43.0133 26.5334L17.6533 12.2666L21.84 10L46.32 23.8133C46.5867 23.9733 46.8 24.1866 46.96 24.4266Z" fill="#E0B220"/>
<path d="M47.3333 29.2534V35.3068C47.3333 36.4001 46.4267 37.3068 45.3333 37.3068C44.24 37.3068 43.3333 36.4001 43.3333 35.3068V31.2534L47.3333 29.2534Z" fill="#E0B220"/>
</svg>
