<svg width="64" height="64" viewBox="0 0 64 64" fill="none" xmlns="http://www.w3.org/2000/svg">
<path opacity="0.4" d="M51.6 15.0934L34.8267 6.0535C33.0667 5.0935 30.9333 5.0935 29.1466 6.0535L12.3734 15.0934C11.1467 15.76 10.4 17.0668 10.4 18.5068C10.4 19.9468 11.1467 21.2534 12.3734 21.92L29.1466 30.9601C30.0266 31.4401 31.0133 31.6801 31.9733 31.6801C32.9333 31.6801 33.92 31.4401 34.8 30.9601L51.5733 21.92C52.8 21.2534 53.5466 19.9468 53.5466 18.5068C53.6 17.0668 52.8267 15.76 51.6 15.0934Z" fill="#E0B220"/>
<path opacity="0.4" d="M26.4 34.1068L10.8 26.2935C9.59997 25.6802 8.21332 25.7602 7.06666 26.4535C5.91999 27.1468 5.25334 28.3736 5.25334 29.7069V44.4535C5.25334 47.0135 6.66663 49.3068 8.95997 50.4535L24.56 58.2403C25.0933 58.507 25.68 58.6402 26.2667 58.6402C26.96 58.6402 27.6534 58.4536 28.2667 58.0536C29.4134 57.3603 30.08 56.1335 30.08 54.8002V40.0536C30.1067 37.5469 28.6933 35.2535 26.4 34.1068Z" fill="#E0B220"/>
<path opacity="0.4" d="M58.7467 29.7336V41.9735C58.72 41.9468 58.6933 41.8936 58.6667 41.8669C58.6667 41.8402 58.64 41.8135 58.6134 41.7868C58.5067 41.6268 58.3733 41.4669 58.24 41.3335C58.2133 41.3069 58.1867 41.2536 58.16 41.2269C56 38.8269 52.8267 37.3335 49.3333 37.3335C45.9733 37.3335 42.9066 38.7201 40.72 40.9601C38.6133 43.1201 37.3333 46.0802 37.3333 49.3335C37.3333 51.5735 37.9733 53.7069 39.0667 55.5202C39.52 56.2935 40.08 56.9868 40.6934 57.6268L39.44 58.2668C38.9067 58.5335 38.32 58.6669 37.7333 58.6669C37.04 58.6669 36.3467 58.4803 35.7067 58.0803C34.5867 57.3869 33.8933 56.1602 33.8933 54.8268V40.1068C33.8933 37.5468 35.3067 35.2535 37.6 34.1068L53.2 26.3202C54.4 25.7068 55.7867 25.7602 56.9334 26.4802C58.0534 27.1735 58.7467 28.4003 58.7467 29.7336Z" fill="#E0B220"/>
<path d="M58.6134 41.7866C56.4267 39.0933 53.0933 37.3867 49.3333 37.3867C46.5067 37.3867 43.8933 38.3734 41.84 40.0267C39.0667 42.2134 37.3333 45.6001 37.3333 49.3867C37.3333 51.6267 37.9733 53.7601 39.0666 55.5734C39.7866 56.7734 40.6933 57.8133 41.76 58.6667H41.7867C43.84 60.3733 46.48 61.3867 49.3333 61.3867C52.3733 61.3867 55.12 60.2667 57.2266 58.4001C58.16 57.6001 58.96 56.6401 59.6 55.5734C60.6933 53.7601 61.3333 51.6267 61.3333 49.3867C61.3333 46.5067 60.32 43.84 58.6134 41.7866ZM55.36 47.8934L48.96 53.8133C48.5866 54.16 48.08 54.3467 47.6 54.3467C47.0933 54.3467 46.5867 54.1599 46.1867 53.7599L43.2266 50.8C42.4533 50.0266 42.4533 48.7466 43.2266 47.9733C44 47.2 45.28 47.2 46.0533 47.9733L47.6533 49.5734L52.64 44.96C53.44 44.2133 54.72 44.2667 55.4666 45.0667C56.24 45.8934 56.1867 47.1467 55.36 47.8934Z" fill="#E0B220"/>
</svg>
