<svg width="48" height="48" viewBox="0 0 48 48" fill="none" xmlns="http://www.w3.org/2000/svg">
<path opacity="0.4" d="M40.2 13.88C40.2 14.96 39.62 15.9399 38.7 16.4399L35.22 18.3199L32.26 19.9L26.12 23.2199C25.46 23.5799 24.74 23.76 24 23.76C23.26 23.76 22.54 23.5799 21.88 23.2199L9.29999 16.4399C8.37999 15.9399 7.79999 14.96 7.79999 13.88C7.79999 12.8 8.37999 11.8199 9.29999 11.3199L13.24 9.19991L16.38 7.49996L21.88 4.54C23.2 3.82 24.8 3.82 26.12 4.54L38.7 11.3199C39.62 11.8199 40.2 12.8 40.2 13.88Z" fill="#E0B220"/>
<path opacity="0.4" d="M19.8 25.5798L8.09998 19.7198C7.19998 19.2598 6.15999 19.3198 5.29999 19.8398C4.43999 20.3598 3.94 21.2798 3.94 22.2798V33.3398C3.94 35.2598 4.99997 36.9798 6.71997 37.8398L18.42 43.6799C18.82 43.8799 19.26 43.9798 19.7 43.9798C20.22 43.9798 20.74 43.8398 21.2 43.5398C22.06 43.0198 22.56 42.0998 22.56 41.0998V30.0398C22.58 28.1598 21.52 26.4398 19.8 25.5798Z" fill="#E0B220"/>
<path opacity="0.4" d="M44.06 22.3003V33.3602C44.06 35.2602 43 36.9802 41.28 37.8402L29.58 43.7002C29.18 43.9002 28.74 44.0003 28.3 44.0003C27.78 44.0003 27.26 43.8603 26.78 43.5603C25.94 43.0403 25.42 42.1203 25.42 41.1203V30.0802C25.42 28.1602 26.48 26.4402 28.2 25.5802L32.5 23.4402L35.5 21.9402L39.9 19.7403C40.8 19.2803 41.84 19.3202 42.7 19.8602C43.54 20.3802 44.06 21.3003 44.06 22.3003Z" fill="#E0B220"/>
<path d="M35.22 18.3199L32.26 19.9L13.24 9.19995L16.38 7.5L34.74 17.86C34.94 17.98 35.1 18.1399 35.22 18.3199Z" fill="#E0B220"/>
<path d="M35.5 21.9399V26.48C35.5 27.3 34.82 27.98 34 27.98C33.18 27.98 32.5 27.3 32.5 26.48V23.4399L35.5 21.9399Z" fill="#E0B220"/>
</svg>
