<svg width="64" height="64" viewBox="0 0 64 64" fill="none" xmlns="http://www.w3.org/2000/svg">
<path opacity="0.4" d="M15.3067 42.6668C15.6 41.3602 15.0667 39.4935 14.1333 38.5602L7.65334 32.0802C5.62667 30.0535 4.82667 27.8935 5.41334 26.0268C6.02667 24.1602 7.92 22.8802 10.7467 22.4002L19.0667 21.0135C20.2667 20.8002 21.7333 19.7335 22.2933 18.6402L26.88 9.44016C28.2133 6.80016 30.0267 5.3335 32 5.3335C33.9733 5.3335 35.7867 6.80016 37.12 9.44016L41.7067 18.6402C42.0533 19.3335 42.7733 20.0002 43.5467 20.4535L14.8267 49.1735C14.4533 49.5468 13.8133 49.2002 13.92 48.6668L15.3067 42.6668Z" fill="#E0B220"/>
<path d="M49.8667 38.5601C48.9067 39.5201 48.3733 41.3601 48.6933 42.6667L50.5333 50.6934C51.3067 54.0267 50.8267 56.5334 49.1733 57.7334C48.5067 58.2134 47.7067 58.4534 46.7733 58.4534C45.4133 58.4534 43.8133 57.9467 42.0533 56.9067L34.24 52.2667C33.0133 51.5467 30.9867 51.5467 29.76 52.2667L21.9467 56.9067C18.9867 58.6401 16.4533 58.9334 14.8267 57.7334C14.2133 57.2801 13.76 56.6667 13.4667 55.8667L45.8933 23.4401C47.12 22.2134 48.8533 21.6534 50.5333 21.9467L53.2267 22.4001C56.0533 22.8801 57.9467 24.1601 58.56 26.0267C59.1467 27.8934 58.3467 30.0534 56.32 32.0801L49.8667 38.5601Z" fill="#E0B220"/>
</svg>
