<svg width="64" height="64" viewBox="0 0 64 64" fill="none" xmlns="http://www.w3.org/2000/svg">
<path opacity="0.4" d="M43.1733 5.3335H20.8534C11.1467 5.3335 5.36003 11.1202 5.36003 20.8268V43.1468C5.36003 52.8535 11.1467 58.6401 20.8534 58.6401H43.1733C52.88 58.6401 58.6667 52.8535 58.6667 43.1468V20.8268C58.6667 11.1202 52.88 5.3335 43.1733 5.3335Z" fill="#E0B220"/>
<path d="M26.96 29.7334H19.8933C18.2133 29.7334 16.8534 31.0933 16.8534 32.7733V46.4266H26.96V29.7334V29.7334Z" fill="#E0B220"/>
<path opacity="0.4" d="M34.0267 17.6001H29.9733C28.2933 17.6001 26.9333 18.9601 26.9333 20.6401V46.4002H37.04V20.6401C37.04 18.9601 35.7067 17.6001 34.0267 17.6001Z" fill="#E0B220"/>
<path d="M44.1333 34.2666H37.0667V46.4001H47.1733V37.3066C47.1467 35.6266 45.7866 34.2666 44.1333 34.2666Z" fill="#E0B220"/>
</svg>
