<svg width="14" height="14" viewBox="0 0 14 14" fill="none" xmlns="http://www.w3.org/2000/svg">
<path d="M8.00916 2.04754L9.03583 4.10087C9.17583 4.38671 9.54916 4.66087 9.86416 4.71337L11.725 5.02254C12.915 5.22087 13.195 6.08421 12.3375 6.93587L10.8908 8.38254C10.6458 8.62754 10.5117 9.10004 10.5875 9.43837L11.0017 11.2292C11.3283 12.6467 10.5758 13.195 9.32166 12.4542L7.57749 11.4217C7.26249 11.235 6.74333 11.235 6.42249 11.4217L4.67833 12.4542C3.42999 13.195 2.67166 12.6409 2.99833 11.2292L3.41249 9.43837C3.48833 9.10004 3.35416 8.62754 3.10916 8.38254L1.66249 6.93587C0.810826 6.08421 1.08499 5.22087 2.27499 5.02254L4.13583 4.71337C4.44499 4.66087 4.81833 4.38671 4.95833 4.10087L5.98499 2.04754C6.54499 0.933372 7.45499 0.933372 8.00916 2.04754Z" stroke="white" stroke-width="1.5" stroke-linecap="round" stroke-linejoin="round"/>
</svg>
