<svg width="48" height="48" viewBox="0 0 48 48" fill="none" xmlns="http://www.w3.org/2000/svg">
<path opacity="0.4" d="M36.76 25.6802V35.5402C36.76 38.0802 34.78 40.8002 32.4 41.6002L26.02 43.7202C24.9 44.1002 23.08 44.1002 21.98 43.7202L15.6 41.6002C13.2 40.8002 11.24 38.0802 11.24 35.5402L11.26 25.6802L20.1 31.4402C22.26 32.8602 25.82 32.8602 27.98 31.4402L36.76 25.6802Z" fill="#E0B220"/>
<path d="M39.96 12.9201L27.98 5.06012C25.82 3.64012 22.26 3.64012 20.1 5.06012L8.05999 12.9201C4.19999 15.4201 4.19999 21.0801 8.05999 23.6001L11.26 25.6801L20.1 31.4401C22.26 32.8601 25.82 32.8601 27.98 31.4401L36.76 25.6801L39.5 23.8801V30.0001C39.5 30.8201 40.18 31.5001 41 31.5001C41.82 31.5001 42.5 30.8201 42.5 30.0001V20.1601C43.3 17.5801 42.48 14.5801 39.96 12.9201Z" fill="#E0B220"/>
</svg>
