<svg width="42" height="42" viewBox="0 0 42 42" fill="none" xmlns="http://www.w3.org/2000/svg">
<path opacity="0.4" d="M21 38.5C30.665 38.5 38.5 30.665 38.5 21C38.5 11.335 30.665 3.5 21 3.5C11.335 3.5 3.5 11.335 3.5 21C3.5 30.665 11.335 38.5 21 38.5Z" fill="#E0B220"/>
<path d="M18.515 27.2648C18.165 27.2648 17.8325 27.1248 17.5875 26.8798L12.635 21.9273C12.1275 21.4198 12.1275 20.5798 12.635 20.0723C13.1425 19.5648 13.9825 19.5648 14.49 20.0723L18.515 24.0973L27.51 15.1023C28.0175 14.5948 28.8575 14.5948 29.365 15.1023C29.8725 15.6098 29.8725 16.4498 29.365 16.9573L19.4425 26.8798C19.1975 27.1248 18.865 27.2648 18.515 27.2648Z" fill="#E0B220"/>
</svg>
