<svg width="64" height="64" viewBox="0 0 64 64" fill="none" xmlns="http://www.w3.org/2000/svg">
<path opacity="0.4" d="M56.1083 19.1735L32.0017 33.1202L7.895 19.1735C8.96166 17.2002 10.5083 15.4668 12.2417 14.5068L26.4817 6.6135C29.5217 4.90683 34.4817 4.90683 37.5217 6.6135L51.7617 14.5068C53.495 15.4668 55.0417 17.2002 56.1083 19.1735Z" fill="#E0B220"/>
<path opacity="0.6" d="M32.0017 33.12V58.6667C30.0017 58.6667 28.0017 58.24 26.4817 57.3867L12.2417 49.4933C9.015 47.7067 6.375 43.2267 6.375 39.5467V24.4533C6.375 22.7467 6.96167 20.88 7.895 19.1733L32.0017 33.12Z" fill="#E0B220"/>
<path d="M57.6283 24.4533V39.5467C57.6283 43.2267 54.9883 47.7067 51.7617 49.4933L37.5217 57.3867C36.0017 58.24 34.0017 58.6667 32.0017 58.6667V33.12L56.1083 19.1733C57.0417 20.88 57.6283 22.7467 57.6283 24.4533Z" fill="#E0B220"/>
</svg>
