<svg width="14" height="14" viewBox="0 0 14 14" fill="none" xmlns="http://www.w3.org/2000/svg">
<path d="M12.25 3.48844C10.3075 3.29594 8.35333 3.19678 6.405 3.19678C5.25 3.19678 4.095 3.25511 2.94 3.37178L1.75 3.48844" stroke="white" stroke-width="1.5" stroke-linecap="round" stroke-linejoin="round"/>
<path d="M4.95834 2.899L5.08667 2.13484C5.18 1.58067 5.25 1.1665 6.23584 1.1665H7.76417C8.75 1.1665 8.82584 1.604 8.91334 2.14067L9.04167 2.899" stroke="white" stroke-width="1.5" stroke-linecap="round" stroke-linejoin="round"/>
<path d="M10.9958 5.33154L10.6167 11.2057C10.5525 12.1215 10.5 12.8332 8.8725 12.8332H5.1275C3.5 12.8332 3.4475 12.1215 3.38333 11.2057L3.00417 5.33154" stroke="white" stroke-width="1.5" stroke-linecap="round" stroke-linejoin="round"/>
<path d="M6.02583 9.625H7.96833" stroke="white" stroke-width="1.5" stroke-linecap="round" stroke-linejoin="round"/>
<path d="M5.54166 7.2915H8.45833" stroke="white" stroke-width="1.5" stroke-linecap="round" stroke-linejoin="round"/>
</svg>
