<svg width="531" height="552" viewBox="0 0 531 552" fill="none" xmlns="http://www.w3.org/2000/svg">
<path fill-rule="evenodd" clip-rule="evenodd" d="M393.014 347.636C362.709 279.987 332.23 211.948 301.751 143.909C301.418 143.873 301.085 143.837 300.752 143.801C286.953 171.609 273.154 199.418 258.979 227.983C284.235 227.983 308.657 227.983 333.676 227.983C330.766 233.747 328.214 238.867 325.606 243.957C316.641 261.456 307.618 278.925 298.736 296.466C297.796 298.322 296.708 298.789 294.802 298.785C273.776 298.733 252.75 298.8 231.725 298.699C229.24 298.687 228.105 299.471 227.194 301.775C221.519 316.131 215.63 330.401 209.934 344.749C209.039 347.005 207.931 347.925 205.399 347.916C180.585 347.827 155.771 347.874 130.956 347.873C129.945 347.873 128.934 347.772 127.479 347.694C185.421 231.777 243.17 116.245 301.144 0.265C358.754 116.171 416.142 231.629 473.803 347.636C446.704 347.636 419.985 347.636 393.014 347.636ZM259.314 67.591C258.427 69.384 257.182 69.462 255.637 69.447C243.522 69.331 231.407 69.189 219.291 69.114C210.578 69.06 201.864 69.089 193.15 69.095C189.293 69.097 189.283 69.111 189.283 73.089C189.28 116.502 189.264 159.915 189.32 203.329C189.323 206.257 188.729 208.84 187.382 211.457C169.84 245.554 152.398 279.703 134.871 313.808C132.355 318.705 129.382 323.367 126.882 328.271C124.271 333.391 121.984 338.676 119.533 343.878C119.225 344.531 118.78 345.12 118.399 345.738C118.189 345.671 117.979 345.604 117.769 345.537C117.769 253.445 117.769 161.353 117.769 68.911C83.807 68.911 50.062 68.911 16.155 68.911C16.155 45.77 16.155 22.978 16.155 0C108.242 0 200.245 0 292.699 0C292.189 1.25 291.842 2.285 291.359 3.253C280.67 24.695 269.938 46.117 259.314 67.591Z" fill="url(#paint0_linear_2_17)"/>
<path fill-rule="evenodd" clip-rule="evenodd" d="M416.231 432L470.451 548.133H452.209L416.435 469.437C416.435 469.437 416.211 469.412 416.099 469.4C411.446 478.777 404.793 496.154 400.013 505.786C408.529 505.786 427.201 505.786 427.201 505.786L421.092 519.66C421.092 519.66 401.913 519.665 394.823 519.631C393.985 519.627 393.602 519.892 393.295 520.669C391.382 525.509 381.475 547.159 381.475 547.159C381.475 547.159 380.8 548.231 379.946 548.227C371.579 548.197 373.211 548.213 364.844 548.213C364.503 548.213 363.671 548.153 363.671 548.153L416.231 432Z" fill="white"/>
<path d="M91.0886 486.77V499.387C93.9584 494.34 96.754 490.703 99.4753 488.477C102.246 486.201 105.833 485.062 110.237 485.062C111.474 485.062 113.255 485.359 115.581 485.953L111.647 498.867C109.173 498.372 107.54 498.125 106.749 498.125C102.395 498.125 98.7332 499.659 95.7644 502.727C92.8451 505.745 91.3855 509.53 91.3855 514.082V548H78.4714V486.77H91.0886Z" fill="white"/>
<path d="M174.439 486.77H187.353V548H174.439V535.828C168.155 545.081 160.362 549.707 151.06 549.707C142.995 549.707 136.093 546.54 130.353 540.207C124.663 533.874 121.818 526.18 121.818 517.125C121.818 508.565 124.688 501.094 130.428 494.711C136.217 488.279 142.995 485.062 150.763 485.062C155.563 485.062 160.115 486.374 164.42 488.996C168.724 491.618 172.064 495.033 174.439 499.238V486.77ZM176.146 517.57C176.146 511.979 174.142 507.204 170.135 503.246C166.127 499.238 161.327 497.234 155.736 497.234C150.293 497.234 145.543 499.214 141.486 503.172C137.429 507.13 135.4 511.781 135.4 517.125C135.4 522.914 137.379 527.837 141.338 531.895C145.296 535.952 150.095 537.98 155.736 537.98C161.327 537.98 166.127 535.977 170.135 531.969C174.142 527.911 176.146 523.112 176.146 517.57Z" fill="white"/>
<path d="M249.626 529.297V544.066C243.045 547.827 236.662 549.707 230.477 549.707C222.016 549.707 214.595 546.54 208.212 540.207C201.878 533.824 198.712 526.452 198.712 518.09C198.712 508.59 201.878 500.723 208.212 494.488C214.545 488.204 222.486 485.062 232.036 485.062C237.726 485.062 243.589 486.547 249.626 489.516V503.914C243.144 499.758 237.009 497.68 231.22 497.68C225.876 497.68 221.2 499.56 217.192 503.32C213.184 507.081 211.18 511.484 211.18 516.531C211.18 522.221 213.061 527.021 216.821 530.93C220.582 534.789 225.183 536.719 230.626 536.719C236.167 536.719 242.501 534.245 249.626 529.297Z" fill="white"/>
<path d="M261.504 451.664H274.344V513.637L299.726 486.77H316.426L289.93 515.047L316.723 548H300.766L274.344 515.641V548H261.504V451.664Z" fill="white"/>
<path fill-rule="evenodd" clip-rule="evenodd" d="M30.458 551.512C30.458 529.346 30.458 488.18 30.458 465.929C22.284 465.929 8.162 465.929 0 465.929C0 460.359 0 456.873 0 451.343C22.165 451.343 228.31 451.343 250.563 451.343C250.441 451.643 250.357 451.893 250.241 452.126C247.668 457.287 245.085 460.443 242.528 465.611C242.314 466.043 242.015 466.062 241.643 466.058C238.727 466.03 57.811 465.996 54.894 465.978C52.797 465.965 50.7 465.972 48.602 465.973C47.674 465.974 47.672 465.977 47.672 466.935C47.667 550.031 47.214 532.24 47.214 532.24L30.883 551.113L30.61 551.56C30.61 551.56 30.509 551.528 30.458 551.512Z" fill="white"/>
<path d="M482.62 451.664H495.534V548H482.62V451.664Z" fill="white"/>
<path d="M512.978 451.664H525.892V548H512.978V451.664Z" fill="white"/>
<path fill-rule="evenodd" clip-rule="evenodd" d="M530.655 401H2.15503V397H530.655V401Z" fill="#D1CEE0"/>
<defs>
<linearGradient id="paint0_linear_2_17" x1="-72.6959" y1="-109.339" x2="659.155" y2="546.5" gradientUnits="userSpaceOnUse">
<stop stop-color="#FBAE2C"/>
<stop offset="1" stop-color="#CF1D2D"/>
</linearGradient>
</defs>
</svg>
