<svg width="197" height="197" viewBox="0 0 197 197" fill="none" xmlns="http://www.w3.org/2000/svg">
<path opacity="0.7" d="M98.3333 196.667C152.641 196.667 196.667 152.641 196.667 98.3333C196.667 44.0253 152.641 0 98.3333 0C44.0253 0 0 44.0253 0 98.3333C0 152.641 44.0253 196.667 98.3333 196.667Z" fill="black"/>
<path opacity="0.4" d="M116.958 104.229H105.204C95.5624 104.229 87.7083 96.429 87.7083 86.7332V74.979C87.7083 72.7582 85.9208 70.9165 83.6458 70.9165H66.4749C53.9624 70.9165 43.8333 79.0415 43.8333 93.5582V129.525C43.8333 144.042 53.9624 152.167 66.4749 152.167H98.3791C110.892 152.167 121.021 144.042 121.021 129.525V108.292C121.021 106.017 119.179 104.229 116.958 104.229Z" fill="#E0B220"/>
<path d="M129.525 43.8335H118.854H112.95H97.6209C85.3793 43.8335 75.4668 51.6335 75.0334 65.5543C75.3584 65.5543 75.6293 65.5002 75.9543 65.5002H91.2834H97.1876H107.858C120.371 65.5002 130.5 73.6252 130.5 88.1418V98.8127V113.492V124.163C130.5 124.488 130.446 124.758 130.446 125.029C142.525 124.65 152.167 116.633 152.167 102.496V91.8252V77.146V66.4752C152.167 51.9585 142.038 43.8335 129.525 43.8335Z" fill="#E0B220"/>
<path d="M97.8915 71.7293C96.2124 70.0501 93.3416 71.1876 93.3416 73.5168V87.7084C93.3416 93.6668 98.3791 98.5418 104.554 98.5418C108.4 98.5959 113.762 98.5959 118.367 98.5959C120.696 98.5959 121.887 95.8876 120.262 94.2626C114.358 88.3584 103.85 77.7959 97.8915 71.7293Z" fill="#E0B220"/>
</svg>
