<svg width="64" height="64" viewBox="0 0 64 64" fill="none" xmlns="http://www.w3.org/2000/svg">
<path opacity="0.4" d="M58.6667 37.3335V45.3335C58.6667 49.7602 55.0933 53.3335 50.6667 53.3335H48C48 50.4002 45.6 48.0002 42.6667 48.0002C39.7333 48.0002 37.3333 50.4002 37.3333 53.3335H26.6667C26.6667 50.4002 24.2667 48.0002 21.3333 48.0002C18.4 48.0002 16 50.4002 16 53.3335H13.3333C8.90667 53.3335 5.33333 49.7602 5.33333 45.3335V37.3335H34.6667C37.6 37.3335 40 34.9335 40 32.0002V13.3335H44.9067C46.8267 13.3335 48.5867 14.3735 49.5467 16.0269L54.1066 24.0002H50.6667C49.2 24.0002 48 25.2002 48 26.6668V34.6668C48 36.1335 49.2 37.3335 50.6667 37.3335H58.6667Z" fill="#E0B220"/>
<path d="M21.3333 58.6667C24.2789 58.6667 26.6667 56.2789 26.6667 53.3333C26.6667 50.3878 24.2789 48 21.3333 48C18.3878 48 16 50.3878 16 53.3333C16 56.2789 18.3878 58.6667 21.3333 58.6667Z" fill="#E0B220"/>
<path d="M42.6667 58.6667C45.6122 58.6667 48 56.2789 48 53.3333C48 50.3878 45.6122 48 42.6667 48C39.7211 48 37.3333 50.3878 37.3333 53.3333C37.3333 56.2789 39.7211 58.6667 42.6667 58.6667Z" fill="#E0B220"/>
<path d="M58.6667 33.4134V37.3333H50.6667C49.2 37.3333 48 36.1333 48 34.6667V26.6667C48 25.2 49.2 24 50.6667 24H54.1066L57.9733 30.7733C58.4266 31.5733 58.6667 32.4801 58.6667 33.4134Z" fill="#E0B220"/>
<path d="M37.3333 5.3335H16C10.8 5.3335 6.48005 9.06683 5.54671 14.0002H18.6667C19.76 14.0002 20.6667 14.9068 20.6667 16.0002C20.6667 17.0935 19.76 18.0002 18.6667 18.0002H5.33333V22.0002H13.3333C14.4267 22.0002 15.3333 22.9068 15.3333 24.0002C15.3333 25.0935 14.4267 26.0002 13.3333 26.0002H5.33333V30.0002H8C9.09333 30.0002 10 30.9068 10 32.0002C10 33.0935 9.09333 34.0002 8 34.0002H5.33333V37.3335H34.6667C37.6 37.3335 40 34.9335 40 32.0002V8.00016C40 6.5335 38.8 5.3335 37.3333 5.3335Z" fill="#E0B220"/>
<path d="M5.54671 14H2.66667C1.57333 14 0.666667 14.9067 0.666667 16C0.666667 17.0933 1.57333 18 2.66667 18H5.33333V16C5.33333 15.3067 5.41338 14.64 5.54671 14Z" fill="#E0B220"/>
<path d="M2.66667 22C1.57333 22 0.666667 22.9067 0.666667 24C0.666667 25.0933 1.57333 26 2.66667 26H5.33333V22H2.66667Z" fill="#E0B220"/>
<path d="M2.66667 30C1.57333 30 0.666667 30.9067 0.666667 32C0.666667 33.0933 1.57333 34 2.66667 34H5.33333V30H2.66667Z" fill="#E0B220"/>
</svg>
